# AST/ASF file generated using VICON BodyLanguage
# -----------------------------------------------
:version 1.10
:name VICON
:units
  mass 1.0
  length 0.45
  angle deg
:documentation
   .ast/.asf automatically generated from VICON data using
   VICON BodyBuilder and BodyLanguage model FoxedUp or BRILLIANT.MOD
:root
   order TX TY TZ RX RY RZ
   axis XYZ
   position 0 0 0  
   orientation 0 0 0 
:bonedata
  begin
     id 1 
     name lhipjoint
     direction 0.700308 -0.549349 0.455834 
     length 2.59063 
     axis 0 0 0  XYZ
  end
  begin
     id 2 
     name lfemur
     direction 0.34202 -0.939693 0  
     length 6.31066  
     axis 0 0 20  XYZ
    dof rx ry rz
    limits (-160.0 20.0)
           (-70.0 70.0)
           (-60.0 70.0)
  end
  begin
     id 3 
     name ltibia
     direction 0.34202 -0.939693 0   
     length 7.36093   
     axis 0 0 20   XYZ
    dof rx
    limits (-10.0 170.0)
  end
  begin
     id 4 
     name lfoot
     direction 0.0905332 -0.248738 0.96433   
     length 2.0233   
     axis -90 7.62852e-016 20   XYZ
    dof rx rz
    limits (-45.0 90.0)
           (-70.0 20.0)
  end
  begin
     id 5 
     name ltoes
     direction 1.53573e-011 -4.21855e-011 1   
     length 1.01524   
     axis -90 7.62852e-016 20   XYZ
    dof rx
    limits (-90.0 20.0)
  end
  begin
     id 6 
     name rhipjoint
     direction -0.61416 -0.607328 0.503944   
     length 2.34332  
     axis 0 0 0  XYZ 
  end
  begin
     id 7 
     name rfemur
     direction -0.34202 -0.939693 0   
     length 6.58548   
     axis 0 0 -20   XYZ
    dof rx ry rz
    limits (-160.0 20.0)
           (-70.0 70.0)
           (-70.0 60.0)
  end
  begin
     id 8 
     name rtibia
     direction -0.34202 -0.939693 0   
     length 7.20707   
     axis 0 0 -20   XYZ
    dof rx
    limits (-10.0 170.0)
 end
 begin
     id 9 
     name rfoot
     direction -0.136772 -0.375778 0.916561   
     length 1.92184  
     axis -90 -7.62852e-016 -20   XYZ
    dof rx rz
    limits (-45.0 90.0)
           (-20.0 70.0)
  end
  begin
     id 10 
     name rtoes
     direction -1.53535e-011 -4.21828e-011 1   
     length 0.951089   
     axis -90 -7.62852e-016 -20   XYZ
    dof rx
    limits (-90.0 20.0)
  end
  begin
     id 11 
     name lowerback
     direction -0.0444974 0.988086 -0.147332   
     length 1.9609   
     axis 0 0 0   XYZ
    dof rx ry rz
    limits (-20.0 45.0)
           (-30.0 30.0)
           (-30.0 30.0)
  end
  begin
     id 12 
     name upperback
     direction 0.00613146 0.999513 0.0306081   
     length 1.94944   
     axis 0 0 0   XYZ
    dof rx ry rz
    limits (-20.0 45.0)
           (-30.0 30.0)
           (-30.0 30.0)
  end
  begin
     id 13 
     name thorax
     direction 0.0254621 0.994518 0.101418   
     length 2.0119   
     axis 0 0 0   XYZ
    dof rx ry rz
    limits (-20.0 45.0)
           (-30.0 30.0)
           (-30.0 30.0)
  end
  begin
     id 14 
     name lowerneck
     direction 0.0168698 0.977854 0.208608   
     length 1.6375   
     axis 0 0 0   XYZ
    dof rx ry rz
    limits (-20.0 45.0)
           (-30.0 30.0)
           (-30.0 30.0)
  end
  begin
     id 15 
     name upperneck
     direction -0.0283988 0.989338 -0.142843   
     length 1.6851   
     axis 0 0 0   XYZ
    dof rx ry rz
    limits (-20.0 45.0)
           (-30.0 30.0)
           (-30.0 30.0)
  end
  begin
     id 16
     name head
     direction -0.0129422 0.99741 -0.0707489  
     length 1.69029  
     axis 0 0 0   XYZ
    dof rx ry rz
    limits (-20.0 45.0)
           (-30.0 30.0)
           (-30.0 30.0)
  end
  begin
     id 17 
     name lclavicle
     direction 0.820295 0.564628 -0.0911715  
     length 3.16484  
     axis 0 0 0   XYZ
    dof ry rz
    limits (-20.0 10.0)
           (0.0 20.0)
  end
  begin
     id 18 
     name lhumerus
     direction 1 -4.48969e-011 1.00186e-027   
     length 5.17853   
     axis 180 -30 -90   XYZ
    dof rx ry rz
    limits (-60.0 90.0)
           (-90.0 90.0)
           (-90.0 90.0)
  end
  begin
     id 19
     name lradius
     direction 1 -4.48966e-011 -1.52922e-027   
     length 3.40399   
     axis 180 -30 -90   XYZ
    dof rx
    limits (-10.0 170.0)
  end
  begin
     id 20
     name lwrist
     direction 1 -4.48981e-011 -3.80893e-027   
     length 1.70199   
     axis 1.1049e-015 90 90   XYZ
    dof ry
    limits (-180.0 0.0)
 end
  begin
     id 21 
     name lhand
     direction 1 -4.48957e-011 -7.61786e-027   
     length 0.708964   
     axis 4.86085e-015 90 90   XYZ
    dof rx rz
    limits (-90.0 90.0)
           (-45.0 45.0)
  end
  begin
     id 22 
     name lfingers
     direction 1 -4.48929e-011 -1.52357e-026   
     length 0.571585   
     axis 9.7217e-015 90 90   XYZ
    dof rx
    limits (0.0 90.0)
  end
  begin
     id 23
     name lthumb
     direction 0.707107 -6.34905e-011 0.707107   
     length 0.820685   
     axis -90 45 2.85299e-015   XYZ
    dof rx rz
    limits (-45.0 45.0)
           (-45.0 45.0)
  end
  begin
     id 24 
     name rclavicle
     direction -0.858602 0.463947 -0.218075   
     length 3.35137  
     axis 0 0 0   XYZ 
    dof ry rz
    limits (-10.0 20.0)
           (-20.0 0.0)
  end
  begin
     id 25 
     name rhumerus
     direction -1 -4.48969e-011 -1.98511e-027  
     length 5.42351   
     axis 180 30 90   XYZ
    dof rx ry rz
    limits (-90.0 60.0)
           (-90.0 90.0)
           (-90.0 90.0)
  end
  begin
     id 26 
     name rradius
     direction -1 -4.48961e-011 -2.82624e-027   
     length 3.42066   
     axis 180 30 90   XYZ
    dof rx
    limits (-10.0 170.0)
  end
  begin
     id 27 
     name rwrist
     direction -1 -4.48966e-011 -3.80893e-027   
     length 1.71033   
     axis 1.1049e-015 -90 -90   XYZ
    dof ry
    limits (-180.0 0.0)
  end
  begin
     id 28
     name rhand
     direction -1 -4.48964e-011 -7.61786e-027   
     length 0.743608   
     axis 4.86085e-015 -90 -90   XYZ
    dof rx rz
    limits (-90.0 90.0)
           (-45.0 45.0)
  end
  begin
     id 29
     name rfingers
     direction -1 -4.48961e-011 -1.52357e-026   
     length 0.599516   
     axis 9.7217e-015 -90 -90   XYZ
    dof rx
    limits (0.0 90.0)
  end
  begin
     id 30
     name rthumb
     direction -0.707107 -6.34913e-011 0.707107   
     length 0.860789   
     axis -90 -45 -2.85299e-015   XYZ
    dof rx rz
    limits (-45.0 45.0)
           (-45.0 45.0)
  end
:hierarchy
  begin
    root lhipjoint rhipjoint lowerback
    lhipjoint lfemur
    lfemur ltibia
    ltibia lfoot
    lfoot ltoes
    rhipjoint rfemur
    rfemur rtibia
    rtibia rfoot
    rfoot rtoes
    lowerback upperback
    upperback thorax
    thorax lowerneck lclavicle rclavicle
    lowerneck upperneck
    upperneck head
    lclavicle lhumerus
    lhumerus lradius
    lradius lwrist
    lwrist lhand lthumb
    lhand lfingers
    rclavicle rhumerus
    rhumerus rradius
    rradius rwrist
    rwrist rhand rthumb
    rhand rfingers
  end

#!OML:ASF E:\mmandel\Project 1\Capture day 1\Session 2\Subject.ASF
:FULLY-SPECIFIED
:DEGREES
232
root 7.12442 14.7235 -1.6388 27.3934 84.2926 6.10622
lowerback 18.93 3.11358 -4.40022
upperback 2.22001 3.26886 -0.368807
thorax -8.41452 1.75482 1.24564
lowerneck -18.294 4.96446 6.26418
upperneck 2.5563 6.07716 -8.73872
head 4.15016 2.64874 -3.18239
rclavicle 6.36111e-015 1.33186e-014
rhumerus -12.0598 -4.27962 -73.7435
rradius 83.2674
rwrist -20.8381
rhand -9.76319 26.3954
rfingers 7.12502
rthumb 16.2117 -2.94673
lclavicle 6.36111e-015 1.33186e-014
lhumerus -14.1779 -13.5037 78.0667
lradius 71.7253
lwrist 24.8923
lhand -15.3921 -29.3802
lfingers 7.12502
lthumb 10.7866 0.322854
rfemur -60.9921 -8.55788 13.2279
rtibia 65.8084
rfoot -27.0741 -4.70584
rtoes -16.5082
lfemur -57.5169 21.8397 -18.1212
ltibia 62.8002
lfoot -22.21 -4.1061
ltoes 0.842057
233
root 7.12514 14.7226 -1.61861 28.2644 84.4566 7.01065
lowerback 18.9489 3.09694 -4.36718
upperback 2.24314 3.25559 -0.358106
thorax -8.39744 1.74759 1.24195
lowerneck -18.5234 4.99619 6.45161
upperneck 2.64588 6.08635 -8.89039
head 4.22521 2.64091 -3.25535
rclavicle 2.62396e-014 2.26615e-014
rhumerus -11.9413 -4.34236 -73.7608
rradius 83.2198
rwrist -20.8012
rhand -9.74078 26.2475
rfingers 7.12502
rthumb 16.2333 -3.09287
lclavicle 2.62396e-014 2.26615e-014
lhumerus -14.2219 -13.5445 78.0917
lradius 71.5661
lwrist 24.8526
lhand -15.3583 -29.4865
lfingers 7.12502
lthumb 10.8192 0.214876
rfemur -60.9588 -8.61095 13.2468
rtibia 65.8885
rfoot -27.1642 -4.84088
rtoes -16.4908
lfemur -57.4476 21.7462 -18.0772
ltibia 62.6996
lfoot -22.1813 -4.09027
ltoes 0.174265
234
root 7.12574 14.7236 -1.59958 29.5928 84.5929 8.32088
lowerback 18.9018 3.07128 -4.35507
upperback 2.25356 3.22646 -0.373561
thorax -8.35697 1.73276 1.22859
lowerneck -18.5466 4.99118 6.421
upperneck 2.68465 6.07749 -8.78595
head 4.23475 2.64068 -3.21801
rclavicle -2.50469e-014 -3.45885e-014
rhumerus -11.8586 -4.39824 -73.8387
rradius 83.1719
rwrist -20.7435
rhand -9.77388 26.0798
rfingers 7.12502
rthumb 16.2014 -3.26318
lclavicle -2.50469e-014 -3.45885e-014
lhumerus -14.2661 -13.5731 78.0827
lradius 71.4252
lwrist 24.8097
lhand -15.2519 -29.4879
lfingers 7.12502
lthumb 10.9217 0.208009
rfemur -60.9687 -8.7013 13.2295
rtibia 65.9614
rfoot -27.2787 -4.90078
rtoes -16.5625
lfemur -57.4359 21.5991 -18.0815
ltibia 62.5984
lfoot -22.1177 -4.07454
ltoes -0.2294
235
root 7.12813 14.7249 -1.57914 30.3449 84.7222 9.03403
lowerback 18.806 3.07553 -4.34498
upperback 2.26639 3.24161 -0.349871
thorax -8.2924 1.73934 1.24928
lowerneck -18.2953 4.9767 6.20891
upperneck 2.61098 6.08988 -8.53612
head 4.15801 2.66452 -3.10844
rclavicle 3.33958e-014 -1.8487e-014
rhumerus -11.6761 -4.41548 -73.8105
rradius 83.0234
rwrist -20.7833
rhand -9.83188 26.0755
rfingers 7.12502
rthumb 16.1455 -3.27204
lclavicle 3.33958e-014 -1.8487e-014
lhumerus -14.2962 -13.6165 78.1193
lradius 71.3823
lwrist 24.8222
lhand -15.1869 -29.2817
lfingers 7.12502
lthumb 10.9845 0.410924
rfemur -60.9848 -8.73267 13.2668
rtibia 66.0105
rfoot -27.3726 -4.94824
rtoes -16.4941
lfemur -57.4499 21.5542 -18.0462
ltibia 62.4999
lfoot -22.0557 -4.20818
ltoes -0.030243
236
root 7.13257 14.7285 -1.56085 30.4851 84.8905 9.21057
lowerback 18.8471 3.08414 -4.26944
upperback 2.2394 3.2708 -0.277613
thorax -8.34642 1.7525 1.27436
lowerneck -18.1445 5.19206 6.09131
upperneck 2.59457 6.41261 -8.56682
head 4.15115 2.8243 -3.06947
rclavicle -8.15017e-015 -3.57812e-015
rhumerus -11.6468 -4.38043 -73.6693
rradius 82.9208
rwrist -20.8577
rhand -9.80789 26.0089
rfingers 7.12502
rthumb 16.1686 -3.33672
lclavicle -8.15017e-015 -3.57812e-015
lhumerus -14.4219 -13.6439 78.263
lradius 71.3309
lwrist 24.7969
lhand -15.2423 -29.0609
lfingers 7.12502
lthumb 10.931 0.6346
rfemur -60.8502 -8.789 13.3707
rtibia 66.0126
rfoot -27.4669 -5.05461
rtoes -16.4766
lfemur -57.3762 21.5779 -17.9644
ltibia 62.3966
lfoot -22.0188 -4.28357
ltoes -0.573267
237
root 7.13382 14.7357 -1.54397 30.1931 85.0508 8.95002
lowerback 18.9184 3.09861 -4.14425
upperback 2.21708 3.31648 -0.209823
thorax -8.40976 1.77188 1.26098
lowerneck -18.2254 5.29981 6.05458
upperneck 2.73879 6.57069 -8.59516
head 4.2197 2.89541 -3.05429
rclavicle 5.1684e-015 -2.28602e-014
rhumerus -11.5943 -4.37841 -73.5827
rradius 82.7973
rwrist -20.8194
rhand -9.89417 25.8854
rfingers 7.12502
rthumb 16.0856 -3.46702
lclavicle 5.1684e-015 -2.28602e-014
lhumerus -14.5455 -13.708 78.3527
lradius 71.2428
lwrist 24.7344
lhand -15.3604 -29.0282
lfingers 7.12502
lthumb 10.8172 0.673231
rfemur -60.715 -8.8469 13.5299
rtibia 65.9886
rfoot -27.5305 -5.12207
rtoes -16.3801
lfemur -57.3268 21.6557 -17.8753
ltibia 62.2811
lfoot -21.9292 -4.35608
ltoes -1.233
